<svg xmlns="http://www.w3.org/2000/svg" xmlns:xlink="http://www.w3.org/1999/xlink" width="26" height="23"><defs><path id="harya" d="M1147.98 1404h-15v-1.13c0-.49.4-.87.87-.87h13.26c.48 0 .87.38.87.87zm1 5h-18v-3.03c0-.55.45-.98.99-.98h16.02c.54 0 .98.43.98.98zm3.76.45c.2.38.3.81.26 1.24l-1 13.1a1.31 1.31 0 0 1-1.31 1.2h-21.37c-.69 0-1.26-.52-1.31-1.2l-1-13.1c-.04-.43.05-.86.25-1.24l1.88-3.28c.1-.18.31-.28.52-.23.2.06.35.24.35.45l.03 3.16c0 .25.2.46.46.46h19c.26 0 .46-.2.46-.46l.03-3.16c0-.21.14-.39.34-.44.21-.06.44.04.54.23zm-10.42 9.54a3.69 3.69 0 0 0 3.68-3.7c0-.63-.28-1.3-1.13-1.3-.89 0-1.17.72-1.17 1.35 0 .75-.6 1.37-1.36 1.37h-4.7c-.75 0-1.36-.62-1.36-1.37 0-.63-.2-1.35-1.15-1.35-.91 0-1.13.67-1.13 1.3 0 2.04 1.65 3.7 3.68 3.7z"/></defs><use fill="#3c3c3c" xlink:href="#harya" transform="translate(-1127 -1402)"/></svg>