<svg xmlns="http://www.w3.org/2000/svg" xmlns:xlink="http://www.w3.org/1999/xlink" width="26" height="26"><defs><path id="hg9ta" d="M273 1412a13 13 0 1 1-26 0 13 13 0 0 1 26 0zm-12.02 9.32c.07.68.73 1.15 1.4 1 3.17-.72 5.8-2.87 7.18-5.74.4-.83.16-1.84-.58-2.4-.44-.34-.92-.63-1.36-.92-1.84-1.56-1.07-2.21.56-2.58h.03a2.18 2.18 0 0 0 1.48-3.02 10.61 10.61 0 0 0-11.48-6.12.55.55 0 0 0-.43.68c.06.24.13.5.22.76.39 1.17 1.13.9 2.5.55 1.37-.36 2.52.21 2.6 1.57.08 1.36-1.7 1.82-2.47 2.73-.78.92-.07 2.08-.05 2.66.01.57-.61.5-1.07.04-1.1-1.32-1.78-.95-2.13-.83-.36.1-1.4.79-.82 2.37s2.23.63 4.6.96c2.38.32 4.26 1.63 1.8 4.16-1.36 1.42-2.06 3.24-1.98 4.13zM249.4 1412c0 5.2 3.72 9.5 8.65 10.42.35.06.62-.3.46-.6-.3-.6-1.02-1.33-1.58-2.5-1.28-2.95-.52-4.41-1.36-6.12-.83-1.72-2.17-1.78-2.51-4.05-.34-2.27-.04-3.42 1.72-4.8 1.4-1.08 1.73-1.54 1.57-1.92a.363.363 0 0 0-.48-.19 10.6 10.6 0 0 0-6.47 9.76z"/></defs><use fill="#3c3c3c" xlink:href="#hg9ta" transform="translate(-247 -1399)"/></svg>