<svg xmlns="http://www.w3.org/2000/svg" xmlns:xlink="http://www.w3.org/1999/xlink" width="28" height="25"><defs><path id="v17ma" d="M544.78 1425a.8.8 0 0 1-.8-.8v-18.39c0-.44.36-.8.8-.8h1.83a.4.4 0 0 0 .4-.4v-1.17c0-1.9 1.52-3.43 3.4-3.43h5.2c1.89 0 3.41 1.53 3.41 3.43v1.17c0 .22.18.4.4.4h1.77c.44 0 .8.36.8.8v18.39a.8.8 0 0 1-.8.8zm5.36-23.01c-.64 0-1.16.52-1.16 1.16v1.46c0 .22.18.4.4.4h7.23a.4.4 0 0 0 .4-.4v-1.46c0-.64-.52-1.16-1.16-1.16zm-7.95 2.99c.44 0 .8.35.8.8v18.42a.8.8 0 0 1-.8.8h-1.22a1.97 1.97 0 0 1-1.96-1.98v-16.07c0-1.09.88-1.97 1.96-1.97zm20.8.8c0-.45.36-.8.8-.8h1.25c1.08 0 1.96.88 1.96 1.97v16.07c0 1.1-.88 1.98-1.96 1.98h-1.25a.8.8 0 0 1-.8-.8z"/></defs><use fill="#3c3c3c" xlink:href="#v17ma" transform="translate(-539 -1400)"/></svg>