<svg xmlns="http://www.w3.org/2000/svg" xmlns:xlink="http://www.w3.org/1999/xlink" width="15" height="16" viewBox="0 0 15 16"><defs><path id="h6pca" d="M1258.5 51.82c-2.11 1.87-8.54 1.62-8.54-1.84s4.84-3.52 5.23-3.52c.4 0 .46-.1.13-.46-.33-.35-.85-1.03-.24-1.77-1.09.04-4.1-.55-4.1-3.32 0-2.77 2.9-3.95 3.95-3.95h5.2s-.24.2-.78.5c-.55.31-1.57.16-1.57.16s1.41.88 1.41 2.59-.82 2.46-1.87 3.38c-1.04.92-.43 1.47 1.2 2.63s2.09 3.74-.02 5.6zm-3.8-14.33c-3.04 0-1.86 6.05.73 6.05 3.44 0 1.65-6.14-.72-6.05zm3.84 12.31c0-1.5-1.42-2.24-2.22-2.85-2.94 0-4.5.79-4.5 2.39s1.15 2.68 3.3 2.68 3.42-.73 3.42-2.22zm4.48-12.8v1.97h1.95v1.02h-1.95v1.98H1262v-1.98h-2v-1.02h2V37z"/></defs><g><g transform="translate(-1250 -37)"><use fill="#3c3c3c" xlink:href="#h6pca"/></g></g></svg>