<svg xmlns="http://www.w3.org/2000/svg" xmlns:xlink="http://www.w3.org/1999/xlink" width="16" height="20" viewBox="0 0 16 20"><defs><path id="vvzra" d="M1162.48 36c-5.63 0-8.48 3.92-8.48 7.18 0 1.98.78 3.74 2.43 4.4.28.1.52 0 .6-.3l.24-.92c.08-.29.05-.39-.17-.64a3.25 3.25 0 0 1-.78-2.25c0-2.9 2.24-5.5 5.84-5.5 3.18 0 4.93 1.88 4.93 4.4 0 3.31-1.5 6.1-3.76 6.1-1.24 0-2.17-.99-1.87-2.2.36-1.46 1.05-3.03 1.05-4.08 0-.94-.52-1.73-1.6-1.73-1.27 0-2.29 1.27-2.29 2.98 0 1.08.38 1.81.38 1.81l-1.53 6.27c-.45 1.85-.07 4.13-.03 4.36.02.14.2.17.28.07.12-.15 1.63-1.96 2.14-3.76.15-.51.84-3.16.84-3.16.4.76 1.61 1.43 2.9 1.43 3.8 0 6.4-3.37 6.4-7.87 0-3.41-2.99-6.58-7.52-6.58z"/></defs><g><g transform="translate(-1154 -36)"><use fill="#3c3c3c" xlink:href="#vvzra"/></g></g></svg>