<svg xmlns="http://www.w3.org/2000/svg" xmlns:xlink="http://www.w3.org/1999/xlink" width="18" height="18"><defs><path id="qctma" d="M1218 39.48v11.04a3.48 3.48 0 0 1-3.48 3.48h-11.04a3.48 3.48 0 0 1-3.48-3.48V39.48a3.48 3.48 0 0 1 3.48-3.48h11.04a3.48 3.48 0 0 1 3.48 3.48zm-5-1.46V41l3.01-.01v-3l-.4.01zm-7.01 6.98a3.02 3.02 0 0 0 6.02 0c0-.67-.51-3.01-3.01-3.01s-3.01 2.34-3.01 3.01zm10.04-2h-2.47c.23.57.36 1.35.36 2a4.93 4.93 0 0 1-9.84 0c0-.65.13-1.43.36-2h-2.5v7.3c0 .96.77 1.73 1.72 1.73h10.64c.96 0 1.73-.77 1.73-1.73z"/></defs><use fill="#3c3c3c" xlink:href="#qctma" transform="translate(-1200 -36)"/></svg>