<svg xmlns="http://www.w3.org/2000/svg" xmlns:xlink="http://www.w3.org/1999/xlink" width="30" height="29" viewBox="0 0 30 29"><defs><path id="7d90a" d="M858.6 1405.05a1 1 0 0 0 .83.78l1.2.15a1.6 1.6 0 0 1 1.37 1.8l-2.18 17.82c-.1.9-.9 1.51-1.77 1.4l-22.57-2.83a1.62 1.62 0 0 1-1.38-1.8l.62-5.03-2.7-12.44a1.61 1.61 0 0 1 1.22-1.92l22.21-4.94c.86-.19 1.7.36 1.9 1.23zm-2.8.32c.28.04.52-.23.46-.51l-.78-3.53a.83.83 0 0 0-1-.63l-10.83 2.47c-.37.08-.35.63.03.68zm-20.78 2.98c.1.45.74.42.8-.04l.35-2.84a.43.43 0 0 0-.52-.48l-.63.15a.71.71 0 0 0-.53.85zm21.9 16.2c.46.07.87-.26.92-.73l1.73-14.73a.84.84 0 0 0-.73-.93l-19.68-2.37a.83.83 0 0 0-.92.73l-1.73 14.74c-.05.46.27.88.73.93zm-.02-12.67c0 .94-.75 1.7-1.68 1.7-.92 0-1.67-.76-1.67-1.7s.75-1.7 1.67-1.7c.93 0 1.68.76 1.68 1.7zm-1.48 8.87c.24.38-.07.88-.51.83l-15.34-1.89a.66.66 0 0 1-.37-1.13l6.3-6.12a.96.96 0 0 1 1.48.18l1.8 2.82c.28.44.89.51 1.27.15l.66-.65a.7.7 0 0 1 1.08.13z"/></defs><g><g transform="translate(-832 -1398)"><use fill="#3c3c3c" xlink:href="#7d90a"/></g></g></svg>